PathFileType	4	(X/Y/Z)	Patient5_TMGait_0pt45_1_left_03.trc.trc
DataRate	CameraRate	NumFrames	NumMarkers	Units	OrigDataRate	OrigDataStartFrame	OrigNumFrames
58.091286307054	58.091286307054	4	32	mm	58.091286307054	1	       141
Frame#	Time	R.ASIS			L.ASIS			Chest			R.Shoulder			Neck			L.Shoulder			L.Elbow			L.Wrist			R.Elbow			R.Wrist			L.Thigh.Superior			L.Thigh.Lateral			L.Thigh.Inferior			L.Patella			L.Shank.Superior			L.Shank.Lateral			L.Shank.Inferior			L.Heel			L.Midfoot.Lateral			L.Midfoot.Superior			L.Toe			R.Thigh.Superior			R.Thigh.Lateral			R.Thigh.Inferior			R.Patella			R.Shank.Superior			R.Shank.Lateral			R.Shank.Inferior			R.Heel			R.Midfoot.Lateral			R.Midfoot.Superior			R.Toe			
		X1	Y1	Z1	X2	Y2	Z2	X3	Y3	Z3	X4	Y4	Z4	X5	Y5	Z5	X6	Y6	Z6	X7	Y7	Z7	X8	Y8	Z8	X9	Y9	Z9	X10	Y10	Z10	X11	Y11	Z11	X12	Y12	Z12	X13	Y13	Z13	X14	Y14	Z14	X15	Y15	Z15	X16	Y16	Z16	X17	Y17	Z17	X18	Y18	Z18	X19	Y19	Z19	X20	Y20	Z20	X21	Y21	Z21	X22	Y22	Z22	X23	Y23	Z23	X24	Y24	Z24	X25	Y25	Z25	X26	Y26	Z26	X27	Y27	Z27	X28	Y28	Z28	X29	Y29	Z29	X30	Y30	Z30	X31	Y31	Z31	X32	Y32	Z32	

1	3.380000000000	972.188964126740	974.836456209495	617.621884618739	940.574456810640	962.047546999398	380.114159111215	1010.760596281948	1435.880586285495	539.254752880009	920.038586355744	1485.214173320213	716.311084503386	881.291373538917	1555.965969612736	539.291798379030	934.651700598457	1514.369470872665	351.575908084244	836.984518682789	1207.054101617719	210.839891613967	927.533422252853	935.137981932683	183.427166108607	865.509317088939	1153.258866547150	839.029552024218	1085.367972240706	980.111741576102	762.651480531702	967.891672700172	739.909091358363	348.201131402370	893.891267012889	670.792606204439	305.282130117098	975.678744921346	608.989550974129	351.092744093853	964.506147614221	466.398666911232	339.312128998301	866.558373657682	389.546827534318	366.636313154257	766.254342754149	375.169220906807	296.788729827023	769.598495010138	308.987155499522	380.972374048358	525.790457605846	200.531405208802	383.125949803750	579.543034027254	119.441556667026	331.761641113862	693.220531648105	110.724143640056	372.094424282290	748.167415897001	39.825355343182	390.642762636047	991.301539861670	743.601833233643	628.750854957555	910.109760504901	662.256660749546	685.836999674480	985.213857141561	614.813204218924	603.757717887221	989.548528350849	517.975975836357	629.540765560885	948.621317897399	419.421421321903	592.675545672791	886.525877500578	347.353576773563	677.192165273949	937.129055491461	280.496772987253	589.142847305490	820.283836438642	53.824687534560	557.662097135840	901.969524263629	24.694078097863	627.714128581323	1006.679158300645	88.351160611719	599.738979164877	1110.124613433713	44.151072976755	594.630977800817	
2	3.397214285714	970.994866131379	973.173248510033	618.642170670730	937.657268932889	961.081735236562	382.231124431492	1011.817028726262	1434.045055120514	541.350602311129	922.923810487123	1483.358284750755	719.264877544785	882.539592678229	1554.626232951275	542.790731163155	934.397259959416	1513.559444553176	354.532548426266	833.382917064382	1206.705379873035	214.778777079921	924.359696541193	935.150217376076	185.886615765702	869.480019410632	1151.902715763485	843.616918632600	1089.870930765813	979.859263566444	766.738208017175	973.446070071794	744.163559588588	346.233529909279	902.986823279255	672.634722555098	303.524987962454	988.428283683472	614.603758938519	348.195306887571	982.453318413106	470.721400707602	336.704486706410	882.868733304848	393.627069842776	364.085163136262	782.917029715586	381.583012561184	293.508304002859	783.749898162663	316.328642822774	378.474226236959	538.678262136794	220.809919545500	379.902782475028	586.194509146821	135.771811398055	329.416356665193	698.954069096974	119.575338983097	370.301572026028	746.890866019099	39.187626982172	389.211698523981	984.745928117466	741.501489114019	630.942812857763	901.559737867696	662.119901508988	688.131824282473	974.818346743966	613.069949824989	605.572418174464	977.498792153416	516.805149918933	631.004617652920	936.294511585153	419.942633607330	594.107390522824	875.266027912185	347.518086710902	678.676398391616	926.556454541176	281.251338718937	590.309181160488	811.906750041324	53.740408722842	557.811920221561	893.560986922868	24.567156562549	627.876481210135	998.196568513812	88.329330714535	599.858028277795	1101.722668474544	44.297783254495	594.695185265996	
3	3.414428571429	969.699702933427	971.607985438110	619.907295259498	934.841690507917	960.129602677783	384.407559899947	1012.835466359255	1432.252068111678	543.266980348416	925.751832449881	1481.512971469097	722.014917472468	883.763906201674	1553.299304811601	546.073154151762	934.066124535160	1512.770456456207	357.297448001751	829.863554517027	1206.249051572299	218.654048505342	921.403427445190	935.088886103649	188.343488729124	873.506956014629	1150.557445885290	848.037686775977	1094.190020175889	979.227843214678	770.826195339672	978.768927403652	748.549540288036	344.747255344825	911.880216550733	674.703181005960	302.048166518421	1000.744982727579	620.406437325956	345.763945159993	999.890515016814	475.259057976381	334.385026247110	898.764132257344	397.867184458897	361.762330727543	799.186255042491	387.978263938232	290.472735413004	797.622334706380	323.601298347896	376.163669652826	551.261477347994	239.729668093123	376.872930806929	593.385195269291	151.227667104038	327.091872347887	705.318206421618	128.363421515449	368.574317551989	747.002187800915	39.231200738363	387.708912048563	978.462743747653	739.548704933356	633.144643887676	893.452987743224	661.971992063590	690.427651971278	965.026049543319	611.448472621341	607.438338231590	966.159436035879	515.695223554756	632.532984898648	924.643999683124	420.384375655653	595.572226501576	864.537976565184	347.645639388691	680.157555882818	916.411177208164	281.901581407628	591.485106594214	803.635215833612	53.682098417199	557.982949175626	885.250326342800	24.461283230883	628.043877916559	989.829419776871	88.303756836894	599.983438846464	1093.428062474260	44.426688602282	594.759806947349	
4	3.431642857143	968.244132764694	970.245986341197	621.599986883368	932.202558247469	959.257031051778	386.641429852922	1013.792237674821	1430.554199343257	544.850019973387	928.478155700080	1479.746450894791	724.369612294277	884.960997294487	1552.034801795110	548.927320285362	933.659132001743	1512.020309192286	359.687795846112	826.555074195830	1205.626251769889	222.354719549242	918.899152320905	934.913368063181	190.812088392313	877.595921320095	1149.303442053633	852.130771359095	1098.128584521412	977.980307417373	774.873538128215	983.628194419401	753.172762461792	344.114914651999	920.341684572390	677.191876936914	301.091910505820	1012.205501627057	626.547096990012	344.187425084360	1016.353079880235	480.219775554350	332.615298646215	913.939851646012	402.353863278119	359.874518325042	814.753920123873	394.221328167115	287.919634226894	811.091090971812	330.575694874291	374.206002854350	563.488843404702	255.738108452574	374.230879937534	601.793269498204	164.763434065145	324.786971727186	713.105309285392	136.814079807619	366.889466351685	750.063424816498	40.410443146093	385.914000510798	972.682587878532	737.859081988862	635.333779562947	886.150915424765	661.808895447490	692.683541950064	956.319169257906	610.041813769505	609.351996061437	956.088849517821	514.692714766695	634.132247242272	914.200201464942	420.686475429131	597.058647928942	854.759649382544	347.716708940921	681.606606284293	907.014289411626	282.368266041772	592.651580477091	795.530893590919	53.662932316324	558.182573046906	877.099907674826	24.388324189984	628.212477369699	981.647510293903	88.272026155664	600.117518955961	1085.304376770645	44.525395154049	594.822085154300	
